<svg width="308" height="308" viewBox="0 0 308 308" fill="none" xmlns="http://www.w3.org/2000/svg">
<g filter="url(#filter0_d)">
<rect x="5.5" y="1.5" width="297" height="297" stroke="black" stroke-width="3"/>
<path d="M258.516 118.75H241.097V103.464C241.097 102.451 240.73 101.479 240.076 100.762C239.423 100.045 238.537 99.6429 237.613 99.6429H220.194V95.8214C220.194 94.8079 219.827 93.8359 219.173 93.1193C218.52 92.4026 217.634 92 216.71 92H195.806C194.882 92 193.996 92.4026 193.343 93.1193C192.69 93.8359 192.323 94.8079 192.323 95.8214V130.214H115.677V95.8214C115.677 94.8079 115.31 93.8359 114.657 93.1193C114.004 92.4026 113.118 92 112.194 92H91.2903C90.3663 92 89.4802 92.4026 88.8269 93.1193C88.1735 93.8359 87.8064 94.8079 87.8064 95.8214V99.6429H70.3871C69.4631 99.6429 68.577 100.045 67.9236 100.762C67.2703 101.479 66.9032 102.451 66.9032 103.464V118.75H49.4839C48.5599 118.75 47.6738 119.153 47.0204 119.869C46.367 120.586 46 121.558 46 122.571V168.429C46 169.442 46.367 170.414 47.0204 171.131C47.6738 171.847 48.5599 172.25 49.4839 172.25H66.9032V187.536C66.9032 188.549 67.2703 189.521 67.9236 190.238C68.577 190.955 69.4631 191.357 70.3871 191.357H87.8064V195.179C87.8064 196.192 88.1735 197.164 88.8269 197.881C89.4802 198.597 90.3663 199 91.2903 199H112.194C113.118 199 114.004 198.597 114.657 197.881C115.31 197.164 115.677 196.192 115.677 195.179V160.786H192.323V195.179C192.323 196.192 192.69 197.164 193.343 197.881C193.996 198.597 194.882 199 195.806 199H216.71C217.634 199 218.52 198.597 219.173 197.881C219.827 197.164 220.194 196.192 220.194 195.179V191.357H237.613C238.537 191.357 239.423 190.955 240.076 190.238C240.73 189.521 241.097 188.549 241.097 187.536V172.25H258.516C259.44 172.25 260.326 171.847 260.98 171.131C261.633 170.414 262 169.442 262 168.429V122.571C262 121.558 261.633 120.586 260.98 119.869C260.326 119.153 259.44 118.75 258.516 118.75ZM66.9032 164.607H52.9677V126.393H66.9032V164.607ZM87.8064 183.714H73.871V107.286H87.8064V183.714ZM108.71 191.357H94.7742V99.6429H108.71V191.357ZM192.323 153.143H115.677V137.857H192.323V153.143ZM213.226 191.357H199.29V99.6429H213.226V191.357ZM234.129 183.714H220.194V107.286H234.129V183.714ZM255.032 164.607H241.097V126.393H255.032V164.607Z" fill="black"/>
</g>
<defs>
<filter id="filter0_d" x="0" y="0" width="308" height="308" filterUnits="userSpaceOnUse" color-interpolation-filters="sRGB">
<feFlood flood-opacity="0" result="BackgroundImageFix"/>
<feColorMatrix in="SourceAlpha" type="matrix" values="0 0 0 0 0 0 0 0 0 0 0 0 0 0 0 0 0 0 127 0"/>
<feOffset dy="4"/>
<feGaussianBlur stdDeviation="2"/>
<feColorMatrix type="matrix" values="0 0 0 0 0 0 0 0 0 0 0 0 0 0 0 0 0 0 0.25 0"/>
<feBlend mode="normal" in2="BackgroundImageFix" result="effect1_dropShadow"/>
<feBlend mode="normal" in="SourceGraphic" in2="effect1_dropShadow" result="shape"/>
</filter>
</defs>
</svg>
